PathFileType	4	(X/Y/Z)	Patient4_TMGait_0pt6_02_right_10.trc.trc
DataRate	CameraRate	NumFrames	NumMarkers	Units	OrigDataRate	OrigDataStartFrame	OrigNumFrames
75.675675675676	75.675675675676	4	33	mm	75.675675675676	53	       141
Frame#	Time	Sacral			L.Shoulder			Chest			R.Shoulder			Neck			R.ASIS			L.ASIS			R.Thigh.Superior			R.Thigh.Lateral			R.Thigh.Inferior			R.Patella			L.Thigh.Superior			L.Thigh.Lateral			L.Thigh.Inferior			L.Patella			L.Shank.Superior			L.Shank.Lateral			L.Shank.Inferior			R.Shank.Superior			R.Shank.Lateral			R.Shank.Inferior			R.Heel			R.Midfoot.Superior			R.Midfoot.Lateral			R.Toe			L.Heel			L.Midfoot.Lateral			L.Midfoot.Superior			L.Toe			L.Elbow			L.Wrist			R.Elbow			R.Wrist			
		X1	Y1	Z1	X2	Y2	Z2	X3	Y3	Z3	X4	Y4	Z4	X5	Y5	Z5	X6	Y6	Z6	X7	Y7	Z7	X8	Y8	Z8	X9	Y9	Z9	X10	Y10	Z10	X11	Y11	Z11	X12	Y12	Z12	X13	Y13	Z13	X14	Y14	Z14	X15	Y15	Z15	X16	Y16	Z16	X17	Y17	Z17	X18	Y18	Z18	X19	Y19	Z19	X20	Y20	Z20	X21	Y21	Z21	X22	Y22	Z22	X23	Y23	Z23	X24	Y24	Z24	X25	Y25	Z25	X26	Y26	Z26	X27	Y27	Z27	X28	Y28	Z28	X29	Y29	Z29	X30	Y30	Z30	X31	Y31	Z31	X32	Y32	Z32	X33	Y33	Z33	

53	12.277142857143	762.794910705885	1013.101273806182	516.238093436253	915.665776868043	1445.986051848166	335.466245011179	1039.410754885241	1370.884825789265	477.683866412018	982.279642076317	1439.529267629345	663.250060880102	928.301466998277	1500.890048565803	490.669814802421	996.481007085758	947.285980250250	613.076883610547	961.486206221103	970.057788159944	341.534072443819	1022.036988643056	741.505023702247	581.394787415360	936.454327249177	635.706522782677	642.519409435245	1006.928254334046	580.767356507287	559.597045879775	1001.763663135345	492.790195893119	564.307488565031	1051.216357239187	794.917609497672	368.601119907212	1013.007084577080	665.725884320599	290.830978210102	1120.724138752924	609.466830982893	349.602020326449	1143.370955980210	526.318392292644	338.888344136271	1095.844602652696	451.494214109199	332.604932440570	972.783082445427	366.034926323773	293.269818886617	1010.005633266069	238.889292821223	343.205958652100	971.447353376363	405.826387077683	568.930547959199	896.819152035338	301.918471593830	626.823083615389	937.272632805680	208.359629447829	559.777423551478	799.300069457650	44.598471296068	523.024293762106	972.728504165664	97.442454478662	557.308826683560	883.667383187480	36.881157955126	595.830407433578	1091.804341451647	41.824781495723	581.790480232403	858.147169916526	112.047177375981	394.380772490593	919.045374730599	91.088686252266	306.968004473762	1016.746842967042	133.406542743419	320.252180799305	1124.047360728205	55.286276204241	279.376385496055	801.219274051565	1110.432894112195	226.040843865558	794.195948626588	850.949337635091	213.685816531831	1057.191416905306	1105.758452519212	792.013699602500	1299.304630693869	1030.575564929755	754.776152585385	
54	12.290357142857	761.038777787947	1013.384700339724	516.403188159842	914.421660902968	1446.280110316470	336.140442156089	1038.504404351068	1370.393280624817	477.609261095200	982.279730255848	1438.621993130113	663.609244979038	928.221708925244	1500.594898145534	491.323377034496	994.808202075967	946.905200375082	612.434418579058	959.175932103445	969.827548793154	340.971367108511	1017.876083740165	740.608459697354	580.721056563631	931.290691952740	635.597727728015	642.470841083860	1000.678980312035	579.887458674390	559.520216997436	994.445584250463	492.298623531944	564.254840607203	1048.366706956202	794.783620924579	368.443392289666	1010.860712297522	665.527433236683	290.454681263182	1117.838240089935	609.546879436435	350.534543721870	1141.937427923740	528.412846598285	339.572293313819	1098.468515664549	453.128808045359	332.556101590929	981.643667356573	360.126680579658	292.259340632148	1027.071504226093	235.238127808829	341.904545076669	964.077234072244	405.512145649402	568.948639477243	889.153904419914	301.758100274663	626.810079527894	929.418853588751	208.091037464324	559.769573231093	791.266012909616	44.379104151323	523.021602494828	964.656199065023	97.383533479262	557.307380291150	875.634829679161	36.820752174014	595.909864967855	1083.759694632632	41.889505025736	581.844636173478	884.063433041353	98.190332594273	392.200308085311	946.431010677828	81.893562143841	304.859316766478	1041.042861457871	130.455676487018	318.557552377902	1153.357304130044	59.820109850713	277.676380444857	794.562648779969	1112.692618032846	227.888867137901	783.858372506708	853.170684643024	216.577586278275	1061.788563123196	1105.672897026038	790.461162399847	1306.171920812820	1041.122196511464	750.451677181736	
55	12.303571428571	759.221134479264	1013.503465495520	516.364063770455	913.374644344425	1446.367724792308	336.637719879909	1037.665057048752	1369.655519992117	477.444988790611	982.221403337215	1437.479644120024	663.832961105684	928.218097058984	1500.114973440562	491.807500430147	993.062649261886	946.397126968169	611.719995443714	956.871838487198	969.341277005507	340.281974806451	1013.793339073107	739.635983639657	580.143239286227	926.117901239689	635.407882393455	642.353797305323	994.522891473893	578.958465556152	559.459375600326	987.225509516408	491.751876267594	564.157586676708	1045.178850848931	794.070613343515	368.054207292820	1007.980580990846	664.793466981373	289.913416152296	1114.224559693901	608.933209042638	351.200395737128	1139.650675659680	529.963817268217	340.195013044115	1100.328065491398	454.539203912111	332.564051134544	990.413483815878	354.378732299112	291.014975959713	1043.694843403985	232.363546393244	340.735901632285	956.748994946626	405.126698119860	568.885808758086	881.541629579582	301.554526062332	626.746534385927	921.575407085177	207.767844262090	559.704501184365	783.225736884199	44.133407348024	522.998401370258	956.558583278730	97.306216149325	557.275451377287	867.595271533680	36.762033526365	595.983144188806	1075.711834548608	41.946336198228	581.889073201567	910.002947584860	85.864599676251	389.794128282832	973.918995113226	74.070043560713	302.874340552495	1064.988656950308	128.619555075795	317.243717728590	1181.901416928797	65.598266002327	277.085436127116	788.502727893773	1114.626605510150	229.680884943968	774.410618001689	855.105832300804	219.421545470913	1065.900950824372	1105.214711938292	788.540332243680	1312.036326352242	1051.096275616564	745.897305469406	
56	12.316785714286	757.361606964880	1013.497301516198	516.125629527629	912.532776433809	1446.270562720579	336.933518659670	1036.900446721253	1368.713370883183	477.179062708602	982.114991644004	1436.173499725331	663.898587596011	928.289245306077	1499.492084832051	492.098256498644	991.260570620399	945.796861195313	610.952422884208	954.594905219899	968.653532023190	339.479182573565	1009.796838448513	738.615747181355	579.656718652584	920.950371128505	635.166966179583	642.169044444333	988.476338079882	578.005500543103	559.409385370086	980.131289976407	491.167310167402	564.022078018513	1041.700443530470	792.869556392917	367.442480346863	1004.421373711352	663.599243636353	289.218256897086	1110.010977002703	607.726407959659	351.526048905584	1136.614223784253	531.026995504539	340.737099288857	1101.465207355184	455.772108843580	332.629315926320	998.987579319118	348.951433799972	289.589714726470	1059.646534244730	230.353195989393	339.740635590751	949.478771471126	404.692232480161	568.749307520210	873.989354754217	301.339929282073	626.641823731213	913.756760817161	207.417417970233	559.597040401018	775.181558528350	43.885671817146	522.964498573444	948.447935750485	97.218823262633	557.226670312918	859.551828581953	36.708666537478	596.049112700594	1067.664844703024	41.992451271278	581.925668560801	935.524533814258	75.281718664061	387.258970928019	1001.088326460178	67.734415960877	301.102487189454	1088.257523261756	127.936483226293	316.355119519050	1209.331457546796	72.516439202429	277.647188828382	783.069037007971	1116.228474345943	231.354554933188	765.896206001832	856.735078665844	222.170031609115	1069.517055723896	1104.435264728458	786.254878622819	1316.911671184813	1060.403361416683	741.150071807495	
